<svg xmlns="http://www.w3.org/2000/svg" xmlns:xlink="http://www.w3.org/1999/xlink" contentStyleType="text/css" data-diagram-type="DESCRIPTION" height="523px" preserveAspectRatio="none" style="width:1066px;height:523px;background:#FFFFFF;" version="1.1" viewBox="0 0 1066 523" width="1066px" zoomAndPan="magnify"><?plantuml 1.2026.6?><defs/><g><!--cluster Calculation Engine--><g class="cluster" data-qualified-name="Calculation Engine" data-source-line="6" id="ent0003"><rect fill="none" height="502.8" rx="2.5" ry="2.5" style="stroke:#181818;stroke-width:1;" width="739" x="167.79" y="7"/><text fill="#000000" font-family="sans-serif" font-size="14" font-weight="700" lengthAdjust="spacing" textLength="146.7949" x="463.8925" y="21.9951">Calculation Engine</text></g><!--entity UC1--><g class="entity" data-qualified-name="Calculation Engine.UC1" data-source-line="7" id="ent0004"><ellipse cx="448.7949" cy="57.383" fill="#F1F1F1" rx="64.9149" ry="15.383" style="stroke:#181818;stroke-width:0.5;"/><text fill="#000000" font-family="sans-serif" font-size="14" lengthAdjust="spacing" textLength="93.2422" x="402.1738" y="62.0314">Design Motor</text></g><!--entity UC1_1--><g class="entity" data-qualified-name="Calculation Engine.UC1_1" data-source-line="8" id="ent0005"><ellipse cx="790.7905" cy="194.9481" fill="#F1F1F1" rx="100.1405" ry="22.4281" style="stroke:#181818;stroke-width:0.5;"/><text fill="#000000" font-family="sans-serif" font-size="14" lengthAdjust="spacing" textLength="176.3672" x="702.6069" y="199.5965">Calculate Power &amp; Speed</text></g><!--entity UC1_2--><g class="entity" data-qualified-name="Calculation Engine.UC1_2" data-source-line="9" id="ent0006"><ellipse cx="564.793" cy="194.9526" fill="#F1F1F1" rx="91.213" ry="20.6426" style="stroke:#181818;stroke-width:0.5;"/><text fill="#000000" font-family="sans-serif" font-size="14" lengthAdjust="spacing" textLength="156.4814" x="486.5523" y="199.601">Select Standard Motor</text></g><!--entity UC2--><g class="entity" data-qualified-name="Calculation Engine.UC2" data-source-line="11" id="ent0007"><ellipse cx="356.7909" cy="194.9502" fill="#F1F1F1" rx="81.6509" ry="18.7302" style="stroke:#181818;stroke-width:0.5;"/><text fill="#000000" font-family="sans-serif" font-size="14" lengthAdjust="spacing" textLength="134.5518" x="289.5151" y="199.5986">Design Chain Drive</text></g><!--entity UC2_1--><g class="entity" data-qualified-name="Calculation Engine.UC2_1" data-source-line="12" id="ent0008"><ellipse cx="510.7884" cy="316.8237" fill="#F1F1F1" rx="100.1684" ry="22.4337" style="stroke:#181818;stroke-width:0.5;"/><text fill="#000000" font-family="sans-serif" font-size="14" lengthAdjust="spacing" textLength="176.4287" x="422.574" y="321.4721">Calculate Sprocket Teeth</text></g><!--entity UC2_2--><g class="entity" data-qualified-name="Calculation Engine.UC2_2" data-source-line="13" id="ent0009"><ellipse cx="727.7869" cy="316.8234" fill="#F1F1F1" rx="81.9669" ry="18.7934" style="stroke:#181818;stroke-width:0.5;"/><text fill="#000000" font-family="sans-serif" font-size="14" lengthAdjust="spacing" textLength="135.29" x="660.1419" y="321.4718">Check Chain Stress</text></g><!--entity UC3--><g class="entity" data-qualified-name="Calculation Engine.UC3" data-source-line="15" id="ent0010"><ellipse cx="296.789" cy="316.8238" fill="#F1F1F1" rx="79.019" ry="18.2038" style="stroke:#181818;stroke-width:0.5;"/><text fill="#000000" font-family="sans-serif" font-size="14" lengthAdjust="spacing" textLength="128.3584" x="232.6098" y="321.4722">Design Gear Drive</text></g><!--entity UC3_2--><g class="entity" data-qualified-name="Calculation Engine.UC3_2" data-source-line="16" id="ent0011"><ellipse cx="484.7924" cy="462.5465" fill="#F1F1F1" rx="83.1824" ry="19.0365" style="stroke:#181818;stroke-width:0.5;"/><text fill="#000000" font-family="sans-serif" font-size="14" lengthAdjust="spacing" textLength="138.1201" x="415.7323" y="467.1949">Design Helical Gear</text></g><!--entity UC3_3--><g class="entity" data-qualified-name="Calculation Engine.UC3_3" data-source-line="17" id="ent0012"><ellipse cx="746.7854" cy="462.5531" fill="#F1F1F1" rx="144.2654" ry="31.2531" style="stroke:#181818;stroke-width:0.5;"/><text fill="#000000" font-family="sans-serif" font-size="14" lengthAdjust="spacing" textLength="270.5254" x="611.5227" y="467.2015">Check Gear Stress (sigma_H, sigma_F)</text></g><!--entity UC5--><g class="entity" data-qualified-name="Calculation Engine.UC5" data-source-line="19" id="ent0013"><ellipse cx="274.7908" cy="462.5542" fill="#F1F1F1" rx="91.4708" ry="20.6942" style="stroke:#181818;stroke-width:0.5;"/><text fill="#000000" font-family="sans-serif" font-size="14" lengthAdjust="spacing" textLength="157.0625" x="196.2596" y="467.2026">Lookup Standard Data</text></g><!--entity eng--><g class="entity" data-qualified-name="eng" data-source-line="3" id="ent0001"><ellipse cx="78.7856" cy="27.73" fill="#F1F1F1" rx="8" ry="8" style="stroke:#181818;stroke-width:0.5;"/><path d="M78.7856,35.73 L78.7856,62.73 M65.7856,43.73 L91.7856,43.73 M78.7856,62.73 L65.7856,77.73 M78.7856,62.73 L91.7856,77.73" fill="none" style="stroke:#181818;stroke-width:0.5;"/><text fill="#000000" font-family="sans-serif" font-size="14" lengthAdjust="spacing" textLength="145.5713" x="6" y="92.2251">Mechanical Engineer</text></g><!--entity db--><g class="entity" data-qualified-name="db" data-source-line="4" id="ent0002"><ellipse cx="988.7874" cy="441.0469" fill="#F1F1F1" rx="8" ry="8" style="stroke:#181818;stroke-width:0.5;"/><path d="M988.7874,449.0469 L988.7874,476.0469 M975.7874,457.0469 L1001.7874,457.0469 M988.7874,476.0469 L975.7874,491.0469 M988.7874,476.0469 L1001.7874,491.0469" fill="none" style="stroke:#181818;stroke-width:0.5;"/><text fill="#000000" font-family="sans-serif" font-size="14" lengthAdjust="spacing" textLength="125.2549" x="926.16" y="505.542">Supabase System</text><text fill="#000000" font-family="sans-serif" font-size="14" font-style="italic" lengthAdjust="spacing" textLength="69.3369" x="954.119" y="429.2451">&#171;System&#187;</text></g><!--link UC1 to UC2--><!--link UC2 to UC3--><!--link UC3 to UC5--><!--link eng to UC1--><g class="link" data-entity-1="ent0001" data-entity-2="ent0004" data-link-type="dependency" data-source-line="26" id="lnk17"><path d="M151.77,57.38 C229.02,57.38 301.27,57.38 378.52,57.38" fill="none" id="eng-to-UC1" style="stroke:#181818;stroke-width:1;"/><polygon fill="#181818" points="383.52,57.38,374.52,53.38,378.52,57.38,374.52,61.38,383.52,57.38" style="stroke:#181818;stroke-width:1;stroke-linejoin:miter;stroke-miterlimit:10;"/></g><!--link UC1 to UC1_1--><g class="link" data-entity-1="ent0004" data-entity-2="ent0005" data-link-type="dependency" data-source-line="27" id="lnk18"><path d="M480.96,71.13 C541.32,95.06 667.1818,144.9578 738.0318,173.0378" fill="none" id="UC1-to-UC1_1" style="stroke:#181818;stroke-width:1;stroke-dasharray:7,7;"/><polygon fill="#181818" points="742.68,174.88,735.787,167.8454,738.0318,173.0378,732.8394,175.2826,742.68,174.88" style="stroke:#181818;stroke-width:1;stroke-linejoin:miter;stroke-miterlimit:10;"/><text fill="#000000" font-family="sans-serif" font-size="13" lengthAdjust="spacing" textLength="63.0068" x="661.48" y="138.5969">&#171;include&#187;</text></g><!--link UC1 to UC1_2--><g class="link" data-entity-1="ent0004" data-entity-2="ent0006" data-link-type="dependency" data-source-line="28" id="lnk19"><path d="M461.2,72.89 C482.12,97.34 521.179,142.9912 544.739,170.5212" fill="none" id="UC1-to-UC1_2" style="stroke:#181818;stroke-width:1;stroke-dasharray:7,7;"/><polygon fill="#181818" points="547.99,174.32,545.1772,164.8813,544.739,170.5212,539.0991,170.0829,547.99,174.32" style="stroke:#181818;stroke-width:1;stroke-linejoin:miter;stroke-miterlimit:10;"/><text fill="#000000" font-family="sans-serif" font-size="13" lengthAdjust="spacing" textLength="63.0068" x="521.59" y="138.5969">&#171;include&#187;</text></g><!--link eng to UC2--><g class="link" data-entity-1="ent0001" data-entity-2="ent0007" data-link-type="dependency" data-source-line="30" id="lnk20"><path d="M151.59,88.9 C157.07,91.16 162.51,93.38 167.79,95.53 C201.43,109.19 211.25,109.4 243.79,125.53 C275.02,141.01 304.8161,159.4923 327.2661,174.1823" fill="none" id="eng-to-UC2" style="stroke:#181818;stroke-width:1;"/><polygon fill="#181818" points="331.45,176.92,326.1091,168.645,327.2661,174.1823,321.7288,175.3393,331.45,176.92" style="stroke:#181818;stroke-width:1;stroke-linejoin:miter;stroke-miterlimit:10;"/></g><!--link UC2 to UC2_1--><g class="link" data-entity-1="ent0007" data-entity-2="ent0008" data-link-type="dependency" data-source-line="31" id="lnk21"><path d="M379.18,213.38 C406.87,234.94 450.0445,268.5386 479.7445,291.6586" fill="none" id="UC2-to-UC2_1" style="stroke:#181818;stroke-width:1;stroke-dasharray:7,7;"/><polygon fill="#181818" points="483.69,294.73,479.0452,286.0452,479.7445,291.6586,474.1311,292.3579,483.69,294.73" style="stroke:#181818;stroke-width:1;stroke-linejoin:miter;stroke-miterlimit:10;"/><text fill="#000000" font-family="sans-serif" font-size="13" lengthAdjust="spacing" textLength="63.0068" x="444.01" y="260.4469">&#171;include&#187;</text></g><!--link UC2 to UC2_2--><g class="link" data-entity-1="ent0007" data-entity-2="ent0009" data-link-type="dependency" data-source-line="32" id="lnk22"><path d="M402.65,210.77 C473.9,233.79 605.6122,276.3427 676.9822,299.4027" fill="none" id="UC2-to-UC2_2" style="stroke:#181818;stroke-width:1;stroke-dasharray:7,7;"/><polygon fill="#181818" points="681.74,300.94,674.4058,294.3667,676.9822,299.4027,671.9461,301.9792,681.74,300.94" style="stroke:#181818;stroke-width:1;stroke-linejoin:miter;stroke-miterlimit:10;"/><text fill="#000000" font-family="sans-serif" font-size="13" lengthAdjust="spacing" textLength="63.0068" x="565.5" y="260.4469">&#171;include&#187;</text></g><!--link eng to UC3--><g class="link" data-entity-1="ent0001" data-entity-2="ent0010" data-link-type="dependency" data-source-line="34" id="lnk23"><path d="M127.47,95.97 C138.24,105.16 149.27,115.31 158.79,125.53 C213.03,183.75 262.0779,259.4289 283.6179,294.2189" fill="none" id="eng-to-UC3" style="stroke:#181818;stroke-width:1;"/><polygon fill="#181818" points="286.25,298.47,284.9132,288.7123,283.6179,294.2189,278.1114,292.9236,286.25,298.47" style="stroke:#181818;stroke-width:1;stroke-linejoin:miter;stroke-miterlimit:10;"/></g><!--link UC3 to UC3_2--><g class="link" data-entity-1="ent0010" data-entity-2="ent0011" data-link-type="dependency" data-source-line="35" id="lnk24"><path d="M318.72,334.59 C354.56,361.98 421.3476,413.0536 457.8476,440.9536" fill="none" id="UC3-to-UC3_2" style="stroke:#181818;stroke-width:1;stroke-dasharray:7,7;"/><polygon fill="#181818" points="461.82,443.99,457.0988,435.3465,457.8476,440.9536,452.2405,441.7023,461.82,443.99" style="stroke:#181818;stroke-width:1;stroke-linejoin:miter;stroke-miterlimit:10;"/><text fill="#000000" font-family="sans-serif" font-size="13" lengthAdjust="spacing" textLength="63.0068" x="386.15" y="382.3169">&#171;include&#187;</text></g><!--link UC3 to UC3_3--><g class="link" data-entity-1="ent0010" data-entity-2="ent0012" data-link-type="dependency" data-source-line="36" id="lnk25"><path d="M341.58,332.12 C417.5,356.37 567.6472,404.3284 662.3972,434.5984" fill="none" id="UC3-to-UC3_3" style="stroke:#181818;stroke-width:1;stroke-dasharray:7,7;"/><polygon fill="#181818" points="667.16,436.12,659.8041,429.5708,662.3972,434.5984,657.3696,437.1914,667.16,436.12" style="stroke:#181818;stroke-width:1;stroke-linejoin:miter;stroke-miterlimit:10;"/><text fill="#000000" font-family="sans-serif" font-size="13" lengthAdjust="spacing" textLength="63.0068" x="509.29" y="382.3169">&#171;include&#187;</text></g><!--link eng to UC5--><g class="link" data-entity-1="ent0001" data-entity-2="ent0013" data-link-type="dependency" data-source-line="38" id="lnk26"><path d="M92.99,95.97 C114.07,150.6 155.91,254.65 199.79,339.25 C219.16,376.62 242.8778,413.7722 258.6378,437.5522" fill="none" id="eng-to-UC5" style="stroke:#181818;stroke-width:1;"/><polygon fill="#181818" points="261.4,441.72,259.7623,432.0083,258.6378,437.5522,253.0939,436.4277,261.4,441.72" style="stroke:#181818;stroke-width:1;stroke-linejoin:miter;stroke-miterlimit:10;"/></g><!--reverse link UC1_2 to db--><g class="link" data-entity-1="ent0006" data-entity-2="ent0002" data-link-type="dependency" data-source-line="40" id="lnk28"><path d="M635.2478,210.6556 C649.2178,213.3756 659.01,215.13 672.79,217.38 C724.31,225.8 864.69,215.19 905.79,247.38 C957.89,288.21 977.32,366.14 984.54,415.89" fill="none" id="UC1_2-backto-db" style="stroke:#181818;stroke-width:1;"/><polygon fill="#181818" points="630.34,209.7,638.4097,215.3463,635.2478,210.6556,639.9386,207.4938,630.34,209.7" style="stroke:#181818;stroke-width:1;stroke-linejoin:miter;stroke-miterlimit:10;"/></g><!--reverse link UC2 to db--><g class="link" data-entity-1="ent0007" data-entity-2="ent0002" data-link-type="dependency" data-source-line="41" id="lnk30"><path d="M418.6379,209.843 C432.3779,212.803 442.14,214.78 455.79,217.38 C621.21,248.9 680.84,210.35 826.79,294.38 C879.85,324.93 926.84,377.87 956.37,416" fill="none" id="UC2-backto-db" style="stroke:#181818;stroke-width:1;"/><polygon fill="#181818" points="413.75,208.79,421.7058,214.5957,418.6379,209.843,423.3905,206.7751,413.75,208.79" style="stroke:#181818;stroke-width:1;stroke-linejoin:miter;stroke-miterlimit:10;"/></g><!--reverse link UC3 to db--><g class="link" data-entity-1="ent0010" data-entity-2="ent0002" data-link-type="dependency" data-source-line="42" id="lnk32"><path d="M355.3514,331.5928 C369.1014,334.6428 379.02,336.69 392.79,339.25 C619.87,381.55 688.01,342.12 906.79,416.25 C913.1,418.39 919.5,421.01 925.79,423.89" fill="none" id="UC3-backto-db" style="stroke:#181818;stroke-width:1;"/><polygon fill="#181818" points="350.47,330.51,358.3902,336.3641,355.3514,331.5928,360.1227,328.5539,350.47,330.51" style="stroke:#181818;stroke-width:1;stroke-linejoin:miter;stroke-miterlimit:10;"/></g><!--reverse link UC5 to db--><g class="link" data-entity-1="ent0013" data-entity-2="ent0002" data-link-type="dependency" data-source-line="43" id="lnk34"><path d="M300.1701,438.7629 C323.7901,417.9329 360.05,390.29 401.29,377.75 C505.04,346.19 787.52,340.27 889.29,377.75 C911.01,385.75 931.22,400.84 947.67,416.09" fill="none" id="UC5-backto-db" style="stroke:#181818;stroke-width:1;"/><polygon fill="#181818" points="296.42,442.07,305.8158,439.1173,300.1701,438.7629,300.5244,433.1171,296.42,442.07" style="stroke:#181818;stroke-width:1;stroke-linejoin:miter;stroke-miterlimit:10;"/></g><?plantuml-src XPDDIyD048Rl-ok674J159hGYvHSKhK72qBq91Accp5Pijs4pSPInF_kDX_Mf94U0hipxpppjQboeKhKk8CIUOufHUOW2JHnWogLn1XoKsXmDiGpL8AZX7kL2aMa7S0AIAMz9AfBt69541qgGxl6dMnXkUmC40ICTMd02L7oMg8HXUg83dmnWBeYVeGuAwf4gc1JM7Z3UWtdV_qzWE2vs9E6AuXAegINnWDnHDAs197jAa6T3AcnPwKJgSCCXOAL5f_KIRtf0g9I5pmd0oz49kkrmmh2Z7ZU8IEZgQf-TV-aVoJKW-p-X6XDibdAKTpBOkyySGDhyyArZTnXlBw5zl1mynlfZqfvAegyBazpMw71JhnWtupPwO7xbeaa8VMU57lb1isOx3TXzwtTdx0l6BFl25mjqimqbdb3dXqLiw1T9zpPfoGKbtL2zYMD_Tx8FoQsDPqYl0dYq7-9s7PpYl3F8iP-_mBHpi7-CAwaZsuATfC3m-Zg3wyBzWC0?></g></svg>