<svg xmlns="http://www.w3.org/2000/svg" xmlns:xlink="http://www.w3.org/1999/xlink" contentStyleType="text/css" data-diagram-type="DESCRIPTION" height="406px" preserveAspectRatio="none" style="width:912px;height:406px;background:#FFFFFF;" version="1.1" viewBox="0 0 912 406" width="912px" zoomAndPan="magnify"><?plantuml 1.2026.6?><defs/><g><!--cluster MechDrive Studio--><g class="cluster" data-qualified-name="MechDrive Studio" data-source-line="12" id="ent0005"><rect fill="none" height="385" rx="2.5" ry="2.5" style="stroke:#181818;stroke-width:1;" width="249.6" x="443.69" y="7"/><text fill="#000000" font-family="sans-serif" font-size="14" font-weight="700" lengthAdjust="spacing" textLength="139.6924" x="498.6438" y="21.9951">MechDrive Studio</text></g><!--entity UC1--><g class="entity" data-qualified-name="MechDrive Studio.UC1" data-source-line="13" id="ent0006"><ellipse cx="568.4876" cy="351.9971" fill="#F1F1F1" rx="89.1376" ry="24.2371" style="stroke:#181818;stroke-width:0.5;"/><text fill="#000000" font-family="sans-serif" font-size="14" lengthAdjust="spacing" textLength="55.6104" x="502.3875" y="351.1768">Manage</text><text fill="#000000" font-family="sans-serif" font-size="14" lengthAdjust="spacing" textLength="4.4502" x="557.9979" y="351.1768">&#160;</text><text fill="#000000" font-family="sans-serif" font-size="14" lengthAdjust="spacing" textLength="56.7725" x="562.4481" y="351.1768">Account</text><text fill="#000000" font-family="sans-serif" font-size="14" lengthAdjust="spacing" textLength="4.4502" x="619.2205" y="351.1768">&#160;</text><text fill="#000000" font-family="sans-serif" font-size="14" lengthAdjust="spacing" textLength="10.917" x="623.6707" y="351.1768">&amp;</text><text fill="#000000" font-family="sans-serif" font-size="14" lengthAdjust="spacing" textLength="77.3418" x="529.8167" y="367.4737">Workspace</text></g><!--entity UC2--><g class="entity" data-qualified-name="MechDrive Studio.UC2" data-source-line="14" id="ent0007"><ellipse cx="568.4876" cy="162.9955" fill="#F1F1F1" rx="102.0776" ry="22.8155" style="stroke:#181818;stroke-width:0.5;"/><text fill="#000000" font-family="sans-serif" font-size="14" lengthAdjust="spacing" textLength="48.3369" x="478.1746" y="167.6439">Design</text><text fill="#000000" font-family="sans-serif" font-size="14" lengthAdjust="spacing" textLength="4.4502" x="526.5115" y="167.6439">&#160;</text><text fill="#000000" font-family="sans-serif" font-size="14" lengthAdjust="spacing" textLength="78.7705" x="530.9617" y="167.6439">Mechanical</text><text fill="#000000" font-family="sans-serif" font-size="14" lengthAdjust="spacing" textLength="4.4502" x="609.7322" y="167.6439">&#160;</text><text fill="#000000" font-family="sans-serif" font-size="14" lengthAdjust="spacing" textLength="44.6182" x="614.1824" y="167.6439">Drives</text></g><!--entity UC3--><g class="entity" data-qualified-name="MechDrive Studio.UC3" data-source-line="15" id="ent0008"><ellipse cx="568.4884" cy="256.9977" fill="#F1F1F1" rx="92.7384" ry="20.9477" style="stroke:#181818;stroke-width:0.5;"/><text fill="#000000" font-family="sans-serif" font-size="14" lengthAdjust="spacing" textLength="62.7744" x="488.5318" y="261.6461">Optimize</text><text fill="#000000" font-family="sans-serif" font-size="14" lengthAdjust="spacing" textLength="4.4502" x="551.3062" y="261.6461">&#160;</text><text fill="#000000" font-family="sans-serif" font-size="14" lengthAdjust="spacing" textLength="20.7539" x="555.7564" y="261.6461">via</text><text fill="#000000" font-family="sans-serif" font-size="14" lengthAdjust="spacing" textLength="4.4502" x="576.5103" y="261.6461">&#160;</text><text fill="#000000" font-family="sans-serif" font-size="14" lengthAdjust="spacing" textLength="13.7061" x="580.9605" y="261.6461">AI</text><text fill="#000000" font-family="sans-serif" font-size="14" lengthAdjust="spacing" textLength="4.4502" x="594.6666" y="261.6461">&#160;</text><text fill="#000000" font-family="sans-serif" font-size="14" lengthAdjust="spacing" textLength="49.3281" x="599.1168" y="261.6461">Models</text></g><!--entity UC4--><g class="entity" data-qualified-name="MechDrive Studio.UC4" data-source-line="16" id="ent0009"><ellipse cx="568.4903" cy="66.0001" fill="#F1F1F1" rx="108.8003" ry="24.1601" style="stroke:#181818;stroke-width:0.5;"/><text fill="#000000" font-family="sans-serif" font-size="14" lengthAdjust="spacing" textLength="65.3857" x="470.8492" y="70.6485">Generate</text><text fill="#000000" font-family="sans-serif" font-size="14" lengthAdjust="spacing" textLength="4.4502" x="536.235" y="70.6485">&#160;</text><text fill="#000000" font-family="sans-serif" font-size="14" lengthAdjust="spacing" textLength="66.6641" x="540.6852" y="70.6485">Technical</text><text fill="#000000" font-family="sans-serif" font-size="14" lengthAdjust="spacing" textLength="4.4502" x="607.3492" y="70.6485">&#160;</text><text fill="#000000" font-family="sans-serif" font-size="14" lengthAdjust="spacing" textLength="54.332" x="611.7994" y="70.6485">Reports</text></g><!--entity guest--><g class="entity" data-qualified-name="guest" data-source-line="7" id="ent0001"><ellipse cx="26.5591" cy="254.35" fill="#F1F1F1" rx="8" ry="8" style="stroke:#181818;stroke-width:0.5;"/><path d="M26.5591,262.35 L26.5591,289.35 M13.5591,270.35 L39.5591,270.35 M26.5591,289.35 L13.5591,304.35 M26.5591,289.35 L39.5591,304.35" fill="none" style="stroke:#181818;stroke-width:0.5;"/><text fill="#000000" font-family="sans-serif" font-size="14" lengthAdjust="spacing" textLength="41.1182" x="6" y="318.8451">Guest</text></g><!--entity eng--><g class="entity" data-qualified-name="eng" data-source-line="8" id="ent0002"><ellipse cx="285.9056" cy="162.35" fill="#F1F1F1" rx="8" ry="8" style="stroke:#181818;stroke-width:0.5;"/><path d="M285.9056,170.35 L285.9056,197.35 M272.9056,178.35 L298.9056,178.35 M285.9056,197.35 L272.9056,212.35 M285.9056,197.35 L298.9056,212.35" fill="none" style="stroke:#181818;stroke-width:0.5;"/><text fill="#000000" font-family="sans-serif" font-size="14" lengthAdjust="spacing" textLength="78.7705" x="213.12" y="226.8451">Mechanical</text><text fill="#000000" font-family="sans-serif" font-size="14" lengthAdjust="spacing" textLength="4.4502" x="291.8905" y="226.8451">&#160;</text><text fill="#000000" font-family="sans-serif" font-size="14" lengthAdjust="spacing" textLength="62.3506" x="296.3407" y="226.8451">Engineer</text></g><!--entity supa--><g class="entity" data-qualified-name="supa" data-source-line="9" id="ent0003"><ellipse cx="838.101" cy="235.4969" fill="#F1F1F1" rx="8" ry="8" style="stroke:#181818;stroke-width:0.5;"/><path d="M838.101,243.4969 L838.101,270.4969 M825.101,251.4969 L851.101,251.4969 M838.101,270.4969 L825.101,285.4969 M838.101,270.4969 L851.101,285.4969" fill="none" style="stroke:#181818;stroke-width:0.5;"/><text fill="#000000" font-family="sans-serif" font-size="14" lengthAdjust="spacing" textLength="68.5986" x="778.29" y="299.992">Supabase</text><text fill="#000000" font-family="sans-serif" font-size="14" lengthAdjust="spacing" textLength="4.4502" x="846.8886" y="299.992">&#160;</text><text fill="#000000" font-family="sans-serif" font-size="14" lengthAdjust="spacing" textLength="46.5732" x="851.3388" y="299.992">(BaaS)</text><text fill="#000000" font-family="sans-serif" font-size="14" font-style="italic" lengthAdjust="spacing" textLength="69.3369" x="803.4326" y="223.6951">&#171;System&#187;</text></g><!--entity claude--><g class="entity" data-qualified-name="claude" data-source-line="10" id="ent0004"><ellipse cx="838.1043" cy="44.4969" fill="#F1F1F1" rx="8" ry="8" style="stroke:#181818;stroke-width:0.5;"/><path d="M838.1043,52.4969 L838.1043,79.4969 M825.1043,60.4969 L851.1043,60.4969 M838.1043,79.4969 L825.1043,94.4969 M838.1043,79.4969 L851.1043,94.4969" fill="none" style="stroke:#181818;stroke-width:0.5;"/><text fill="#000000" font-family="sans-serif" font-size="14" lengthAdjust="spacing" textLength="48.6172" x="778.97" y="108.992">Claude</text><text fill="#000000" font-family="sans-serif" font-size="14" lengthAdjust="spacing" textLength="4.4502" x="827.5872" y="108.992">&#160;</text><text fill="#000000" font-family="sans-serif" font-size="14" lengthAdjust="spacing" textLength="22.1484" x="832.0374" y="108.992">API</text><text fill="#000000" font-family="sans-serif" font-size="14" lengthAdjust="spacing" textLength="4.4502" x="854.1858" y="108.992">&#160;</text><text fill="#000000" font-family="sans-serif" font-size="14" lengthAdjust="spacing" textLength="38.6025" x="858.636" y="108.992">(LLM)</text><text fill="#000000" font-family="sans-serif" font-size="14" font-style="italic" lengthAdjust="spacing" textLength="69.3369" x="803.4358" y="32.6951">&#171;System&#187;</text></g><!--reverse link guest to eng--><g class="link" data-entity-1="ent0001" data-entity-2="ent0002" data-link-type="extension" data-source-line="19" id="lnk11"><path d="M64.2801,270.8726 C99.2301,258.3826 156.63,237.86 212.9,217.74" fill="none" id="guest-backto-eng" style="stroke:#181818;stroke-width:1;"/><polygon fill="none" points="47.33,276.93,66.2993,276.5226,62.261,265.2225,47.33,276.93" style="stroke:#181818;stroke-width:1;stroke-linejoin:miter;stroke-miterlimit:10;"/><text fill="#000000" font-family="sans-serif" font-size="13" lengthAdjust="spacing" textLength="64.8223" x="98.12" y="234.0669">&#171;inherits&#187;</text></g><!--link guest to UC1--><g class="link" data-entity-1="ent0001" data-entity-2="ent0006" data-link-type="dependency" data-source-line="21" id="lnk12"><path d="M47.42,286.5 C118,295.39 354.3992,325.1652 481.9892,341.2352" fill="none" id="guest-to-UC1" style="stroke:#181818;stroke-width:1;"/><polygon fill="#181818" points="486.95,341.86,478.5204,336.7667,481.9892,341.2352,477.5207,344.704,486.95,341.86" style="stroke:#181818;stroke-width:1;stroke-linejoin:miter;stroke-miterlimit:10;"/></g><!--link eng to UC2--><g class="link" data-entity-1="ent0002" data-entity-2="ent0007" data-link-type="dependency" data-source-line="22" id="lnk13"><path d="M359.16,184.53 C394.48,180.88 432.4066,176.9648 470.0866,173.0648" fill="none" id="eng-to-UC2" style="stroke:#181818;stroke-width:1;"/><polygon fill="#181818" points="475.06,172.55,465.696,169.4978,470.0866,173.0648,466.5196,177.4553,475.06,172.55" style="stroke:#181818;stroke-width:1;stroke-linejoin:miter;stroke-miterlimit:10;"/></g><!--link eng to UC3--><g class="link" data-entity-1="ent0002" data-entity-2="ent0008" data-link-type="dependency" data-source-line="23" id="lnk14"><path d="M359.16,208.74 C403.49,219.01 454.9089,230.922 497.7889,240.852" fill="none" id="eng-to-UC3" style="stroke:#181818;stroke-width:1;"/><polygon fill="#181818" points="502.66,241.98,494.7945,236.0527,497.7889,240.852,492.9896,243.8464,502.66,241.98" style="stroke:#181818;stroke-width:1;stroke-linejoin:miter;stroke-miterlimit:10;"/></g><!--link eng to UC4--><g class="link" data-entity-1="ent0002" data-entity-2="ent0009" data-link-type="dependency" data-source-line="24" id="lnk15"><path d="M357.19,153.4 C381.71,140.53 409.63,126.54 435.69,115 C458.91,104.72 480.3092,96.4136 503.1292,88.1436" fill="none" id="eng-to-UC4" style="stroke:#181818;stroke-width:1;"/><polygon fill="#181818" points="507.83,86.44,498.0056,85.7458,503.1292,88.1436,500.7314,93.2671,507.83,86.44" style="stroke:#181818;stroke-width:1;stroke-linejoin:miter;stroke-miterlimit:10;"/></g><!--link UC1 to supa--><g class="link" data-entity-1="ent0006" data-entity-2="ent0003" data-link-type="dependency" data-source-line="26" id="lnk16"><path d="M623.97,332.66 C668.74,316.77 727.358,295.9525 773.338,279.6325" fill="none" id="UC1-to-supa" style="stroke:#181818;stroke-width:1;"/><polygon fill="#181818" points="778.05,277.96,768.2304,277.2008,773.338,279.6325,770.9064,284.74,778.05,277.96" style="stroke:#181818;stroke-width:1;stroke-linejoin:miter;stroke-miterlimit:10;"/></g><!--link UC2 to supa--><g class="link" data-entity-1="ent0007" data-entity-2="ent0003" data-link-type="dependency" data-source-line="27" id="lnk17"><path d="M624.61,182.36 C669.29,198.06 727.4022,218.4739 773.1522,234.5339" fill="none" id="UC2-to-supa" style="stroke:#181818;stroke-width:1;"/><polygon fill="#181818" points="777.87,236.19,770.7029,229.4348,773.1522,234.5339,768.0531,236.9832,777.87,236.19" style="stroke:#181818;stroke-width:1;stroke-linejoin:miter;stroke-miterlimit:10;"/></g><!--link UC3 to supa--><g class="link" data-entity-1="ent0008" data-entity-2="ent0003" data-link-type="dependency" data-source-line="28" id="lnk18"><path d="M661.59,257 C700.14,257 738.83,257 772.97,257" fill="none" id="UC3-to-supa" style="stroke:#181818;stroke-width:1;"/><polygon fill="#181818" points="777.97,257,768.97,253,772.97,257,768.97,261,777.97,257" style="stroke:#181818;stroke-width:1;stroke-linejoin:miter;stroke-miterlimit:10;"/></g><!--link UC4 to claude--><g class="link" data-entity-1="ent0009" data-entity-2="ent0004" data-link-type="dependency" data-source-line="29" id="lnk19"><path d="M677.57,66 C712.09,66 743.99,66 773.6,66" fill="none" id="UC4-to-claude" style="stroke:#181818;stroke-width:1;"/><polygon fill="#181818" points="778.6,66,769.6,62,773.6,66,769.6,70,778.6,66" style="stroke:#181818;stroke-width:1;stroke-linejoin:miter;stroke-miterlimit:10;"/></g><?plantuml-src LP1FQyCm3CNl_XIYXz4T0ctQNKO9TEqeXOQDPQDdpT4IazGsjjFH_VdkSvm6l9lUqy-oz5hwSE0K657L3afXY3kX9BEDa1eDda0ZRx2YmbrQWhwDicef0gGgoPA6krba6fHDRyvdiVjfK1z5wMf8lS-GEsLWikl8kWcWXQglHZidNgCK75jub9MGH2P09AiHAJgDxsW9fW-8nMreM-_1QWN5nJewGPQDyAR5hYHOF-zXUZZa0yq7yn_FhYSFAsoDE1CKhYk5ci0t0-WiyVxJIOwonzQSgquwk86ZCetrhodCVjlCOtfBLbGIehF2Q7jbqvXzqawSn1V1MI2izv3xZDkHNCJaZYGPT0IlVkumzeMqCcwab-oNCPyP99rEVh8XOxZt9mjPan7EzYSFRf9aOUk0XpgDwaLKBndpO11zu5waiLZ4OXd4a3Jx0m00?></g></svg>