<svg xmlns="http://www.w3.org/2000/svg" xmlns:xlink="http://www.w3.org/1999/xlink" contentStyleType="text/css" data-diagram-type="DESCRIPTION" height="300px" preserveAspectRatio="none" style="width:668px;height:300px;background:#FFFFFF;" version="1.1" viewBox="0 0 668 300" width="668px" zoomAndPan="magnify"><?plantuml 1.2026.6?><defs/><g><!--cluster MechDrive Studio--><g class="cluster" data-qualified-name="MechDrive Studio" data-source-line="11" id="ent0004"><rect fill="none" height="279" rx="2.5" ry="2.5" style="stroke:#181818;stroke-width:1;" width="282.98" x="198.57" y="7"/><text fill="#000000" font-family="sans-serif" font-size="14" font-weight="700" lengthAdjust="spacing" textLength="139.6924" x="270.2138" y="21.9951">MechDrive Studio</text></g><!--entity UC1--><g class="entity" data-qualified-name="MechDrive Studio.UC1" data-source-line="13" id="ent0005"><ellipse cx="340.0606" cy="235.9981" fill="#F1F1F1" rx="117.4906" ry="25.8981" style="stroke:#181818;stroke-width:0.5;"/><text fill="#000000" font-family="sans-serif" font-size="14" lengthAdjust="spacing" textLength="213.9922" x="233.0645" y="240.6466">Manage Account &amp; Workspace</text></g><!--entity UC2--><g class="entity" data-qualified-name="MechDrive Studio.UC2" data-source-line="14" id="ent0006"><ellipse cx="340.0576" cy="151.9955" fill="#F1F1F1" rx="102.0776" ry="22.8155" style="stroke:#181818;stroke-width:0.5;"/><text fill="#000000" font-family="sans-serif" font-size="14" lengthAdjust="spacing" textLength="180.626" x="249.7446" y="156.6439">Design Mechanical Drives</text></g><!--entity UC3--><g class="entity" data-qualified-name="MechDrive Studio.UC3" data-source-line="15" id="ent0007"><ellipse cx="340.0564" cy="72.0013" fill="#F1F1F1" rx="97.1564" ry="21.8313" style="stroke:#181818;stroke-width:0.5;"/><text fill="#000000" font-family="sans-serif" font-size="14" lengthAdjust="spacing" textLength="169.7705" x="255.1712" y="76.6497">Optimize via Q-Learning</text></g><!--entity guest--><g class="entity" data-qualified-name="guest" data-source-line="5" id="ent0001"><ellipse cx="78.7891" cy="206.35" fill="#F1F1F1" rx="8" ry="8" style="stroke:#181818;stroke-width:0.5;"/><path d="M78.7891,214.35 L78.7891,241.35 M65.7891,222.35 L91.7891,222.35 M78.7891,241.35 L65.7891,256.35 M78.7891,241.35 L91.7891,256.35" fill="none" style="stroke:#181818;stroke-width:0.5;"/><text fill="#000000" font-family="sans-serif" font-size="14" lengthAdjust="spacing" textLength="41.1182" x="58.23" y="270.8451">Guest</text></g><!--entity eng--><g class="entity" data-qualified-name="eng" data-source-line="6" id="ent0002"><ellipse cx="78.7856" cy="78.35" fill="#F1F1F1" rx="8" ry="8" style="stroke:#181818;stroke-width:0.5;"/><path d="M78.7856,86.35 L78.7856,113.35 M65.7856,94.35 L91.7856,94.35 M78.7856,113.35 L65.7856,128.35 M78.7856,113.35 L91.7856,128.35" fill="none" style="stroke:#181818;stroke-width:0.5;"/><text fill="#000000" font-family="sans-serif" font-size="14" lengthAdjust="spacing" textLength="145.5713" x="6" y="142.8451">Mechanical Engineer</text></g><!--entity supa--><g class="entity" data-qualified-name="supa" data-source-line="9" id="ent0003"><ellipse cx="591.1774" cy="130.4969" fill="#F1F1F1" rx="8" ry="8" style="stroke:#181818;stroke-width:0.5;"/><path d="M591.1774,138.4969 L591.1774,165.4969 M578.1774,146.4969 L604.1774,146.4969 M591.1774,165.4969 L578.1774,180.4969 M591.1774,165.4969 L604.1774,180.4969" fill="none" style="stroke:#181818;stroke-width:0.5;"/><text fill="#000000" font-family="sans-serif" font-size="14" lengthAdjust="spacing" textLength="125.2549" x="528.55" y="194.992">Supabase System</text><text fill="#000000" font-family="sans-serif" font-size="14" font-style="italic" lengthAdjust="spacing" textLength="69.3369" x="556.509" y="118.6951">&#171;System&#187;</text></g><!--reverse link guest to eng--><g class="link" data-entity-1="ent0001" data-entity-2="ent0002" data-link-type="extension" data-source-line="19" id="lnk8"><path d="M78.79,179.6 C78.79,163.4 78.79,162.57 78.79,146.38" fill="none" id="guest-backto-eng" style="stroke:#181818;stroke-width:1;"/><polygon fill="none" points="78.79,197.6,84.79,179.6,72.79,179.6,78.79,197.6" style="stroke:#181818;stroke-width:1;stroke-linejoin:miter;stroke-miterlimit:10;"/><text fill="#000000" font-family="sans-serif" font-size="13" lengthAdjust="spacing" textLength="64.8223" x="35.29" y="176.5669">&#171;inherits&#187;</text></g><!--link guest to UC1--><g class="link" data-entity-1="ent0001" data-entity-2="ent0005" data-link-type="dependency" data-source-line="21" id="lnk9"><path d="M99.7,236 C126.26,236 170.4,236 217.27,236" fill="none" id="guest-to-UC1" style="stroke:#181818;stroke-width:1;"/><polygon fill="#181818" points="222.27,236,213.27,232,217.27,236,213.27,240,222.27,236" style="stroke:#181818;stroke-width:1;stroke-linejoin:miter;stroke-miterlimit:10;"/></g><!--link eng to UC2--><g class="link" data-entity-1="ent0002" data-entity-2="ent0006" data-link-type="dependency" data-source-line="22" id="lnk10"><path d="M152.01,120.26 C184.82,125.83 218.8604,131.6041 252.7104,137.3441" fill="none" id="eng-to-UC2" style="stroke:#181818;stroke-width:1;"/><polygon fill="#181818" points="257.64,138.18,249.4354,132.7316,252.7104,137.3441,248.0979,140.619,257.64,138.18" style="stroke:#181818;stroke-width:1;stroke-linejoin:miter;stroke-miterlimit:10;"/></g><!--link eng to UC3--><g class="link" data-entity-1="ent0002" data-entity-2="ent0007" data-link-type="dependency" data-source-line="23" id="lnk11"><path d="M152.01,97.97 C184.52,93.46 218.1275,88.7877 251.7575,84.1177" fill="none" id="eng-to-UC3" style="stroke:#181818;stroke-width:1;"/><polygon fill="#181818" points="256.71,83.43,247.2454,80.7059,251.7575,84.1177,248.3457,88.6299,256.71,83.43" style="stroke:#181818;stroke-width:1;stroke-linejoin:miter;stroke-miterlimit:10;"/></g><!--reverse link UC1 to supa--><g class="link" data-entity-1="ent0005" data-entity-2="ent0003" data-link-type="dependency" data-source-line="25" id="lnk12"><path d="M419.5389,214.1863 C443.5389,207.1663 465.41,200.35 489.55,192 C502.17,187.63 515.52,182.61 528.24,177.64" fill="none" id="UC1-backto-supa" style="stroke:#181818;stroke-width:1;"/><polygon fill="#181818" points="414.74,215.59,424.501,216.9025,419.5389,214.1863,422.2551,209.2242,414.74,215.59" style="stroke:#181818;stroke-width:1;stroke-linejoin:miter;stroke-miterlimit:10;"/></g><!--reverse link UC2 to supa--><g class="link" data-entity-1="ent0006" data-entity-2="ent0003" data-link-type="dependency" data-source-line="26" id="lnk13"><path d="M447.39,152 C476.48,152 502.33,152 528.28,152" fill="none" id="UC2-backto-supa" style="stroke:#181818;stroke-width:1;"/><polygon fill="#181818" points="442.39,152,451.39,156,447.39,152,451.39,148,442.39,152" style="stroke:#181818;stroke-width:1;stroke-linejoin:miter;stroke-miterlimit:10;"/></g><!--reverse link UC3 to supa--><g class="link" data-entity-1="ent0007" data-entity-2="ent0003" data-link-type="dependency" data-source-line="27" id="lnk14"><path d="M412.1787,89.3697 C438.0287,96.0997 462.95,103.16 489.55,112 C502.13,116.18 515.41,121.09 528.06,126.01" fill="none" id="UC3-backto-supa" style="stroke:#181818;stroke-width:1;"/><polygon fill="#181818" points="407.34,88.11,415.0419,94.2485,412.1787,89.3697,417.0575,86.5066,407.34,88.11" style="stroke:#181818;stroke-width:1;stroke-linejoin:miter;stroke-miterlimit:10;"/></g><?plantuml-src LP31JiCm38RlUGgh1suzqDrGDGann8K9eGbnDfb9hRPEbRYJ1kpTIR9Assws_y_sRm_qhQ0U0hjEOS-1hB8N4tkM2GEECA7jqT5EZmD1bb7SGCQeTwGT1VWr06ZL1wXUPefQ0KPmERe8Mx8T2biSu5aS2r4e68ap9sCMQZTF-8MHO7UCIcCXOgf1soubMA-DMHoTfsu27rA3pdlsLV5oOmnWZcJpp6gBahiUhVMpADp1fmzzJCEeBFfukh_bDnJP2LnPBxlYGZUtzDkaFF8FmO4HtkjNmY0iRe5N2JxbIyjVeFshy-dma2vZILvPOxxihDRrkhZ9n3bkhkALCKc4jgxBRrBIN2UhI_8F?></g></svg>