<svg xmlns="http://www.w3.org/2000/svg" xmlns:xlink="http://www.w3.org/1999/xlink" contentStyleType="text/css" data-diagram-type="DESCRIPTION" height="426px" preserveAspectRatio="none" style="width:590px;height:426px;background:#FFFFFF;" version="1.1" viewBox="0 0 590 426" width="590px" zoomAndPan="magnify"><?plantuml 1.2026.6?><defs/><g><!--cluster MechDrive Studio--><g class="cluster" data-qualified-name="MechDrive Studio" data-source-line="7" id="ent0004"><rect fill="none" height="397.47" rx="2.5" ry="2.5" style="stroke:#181818;stroke-width:1;" width="266" x="167.79" y="7"/><text fill="#000000" font-family="sans-serif" font-size="14" font-weight="700" lengthAdjust="spacing" textLength="139.6924" x="230.9438" y="21.9951">MechDrive Studio</text></g><!--entity UC1--><g class="entity" data-qualified-name="MechDrive Studio.UC1" data-source-line="8" id="ent0005"><ellipse cx="300.7906" cy="67.8981" fill="#F1F1F1" rx="117.4906" ry="25.8981" style="stroke:#181818;stroke-width:0.5;"/><text fill="#000000" font-family="sans-serif" font-size="14" lengthAdjust="spacing" textLength="213.9922" x="193.7945" y="72.5466">Manage Account &amp; Workspace</text></g><!--entity UC2--><g class="entity" data-qualified-name="MechDrive Studio.UC2" data-source-line="9" id="ent0006"><ellipse cx="300.7876" cy="221.1855" fill="#F1F1F1" rx="102.0776" ry="22.8155" style="stroke:#181818;stroke-width:0.5;"/><text fill="#000000" font-family="sans-serif" font-size="14" lengthAdjust="spacing" textLength="180.626" x="210.4746" y="225.8339">Design Mechanical Drives</text></g><!--entity UC3--><g class="entity" data-qualified-name="MechDrive Studio.UC3" data-source-line="10" id="ent0007"><ellipse cx="300.7864" cy="366.6413" fill="#F1F1F1" rx="97.1564" ry="21.8313" style="stroke:#181818;stroke-width:0.5;"/><text fill="#000000" font-family="sans-serif" font-size="14" lengthAdjust="spacing" textLength="169.7705" x="215.9012" y="371.2897">Optimize via Q-Learning</text></g><!--entity guest--><g class="entity" data-qualified-name="guest" data-source-line="3" id="ent0001"><ellipse cx="104.7891" cy="38.25" fill="#F1F1F1" rx="8" ry="8" style="stroke:#181818;stroke-width:0.5;"/><path d="M104.7891,46.25 L104.7891,73.25 M91.7891,54.25 L117.7891,54.25 M104.7891,73.25 L91.7891,88.25 M104.7891,73.25 L117.7891,88.25" fill="none" style="stroke:#181818;stroke-width:0.5;"/><text fill="#000000" font-family="sans-serif" font-size="14" lengthAdjust="spacing" textLength="41.1182" x="84.23" y="102.7451">Guest</text></g><!--entity eng--><g class="entity" data-qualified-name="eng" data-source-line="4" id="ent0002"><ellipse cx="78.7856" cy="191.54" fill="#F1F1F1" rx="8" ry="8" style="stroke:#181818;stroke-width:0.5;"/><path d="M78.7856,199.54 L78.7856,226.54 M65.7856,207.54 L91.7856,207.54 M78.7856,226.54 L65.7856,241.54 M78.7856,226.54 L91.7856,241.54" fill="none" style="stroke:#181818;stroke-width:0.5;"/><text fill="#000000" font-family="sans-serif" font-size="14" lengthAdjust="spacing" textLength="145.5713" x="6" y="256.0351">Mechanical Engineer</text></g><!--entity supa--><g class="entity" data-qualified-name="supa" data-source-line="5" id="ent0003"><ellipse cx="512.7874" cy="345.1369" fill="#F1F1F1" rx="8" ry="8" style="stroke:#181818;stroke-width:0.5;"/><path d="M512.7874,353.1369 L512.7874,380.1369 M499.7874,361.1369 L525.7874,361.1369 M512.7874,380.1369 L499.7874,395.1369 M512.7874,380.1369 L525.7874,395.1369" fill="none" style="stroke:#181818;stroke-width:0.5;"/><text fill="#000000" font-family="sans-serif" font-size="14" lengthAdjust="spacing" textLength="125.2549" x="450.16" y="409.632">Supabase System</text><text fill="#000000" font-family="sans-serif" font-size="14" font-style="italic" lengthAdjust="spacing" textLength="69.3369" x="478.119" y="333.3351">&#171;System&#187;</text></g><!--link UC1 to UC2--><!--link UC2 to UC3--><!--reverse link guest to eng--><g class="link" data-entity-1="ent0001" data-entity-2="ent0002" data-link-type="extension" data-source-line="16" id="lnk10"><path d="M95.3106,124.0398 C91.3106,147.3098 89.23,159.41 85.23,182.7" fill="none" id="guest-backto-eng" style="stroke:#181818;stroke-width:1;"/><polygon fill="none" points="98.36,106.3,89.3973,123.0234,101.2239,125.0563,98.36,106.3" style="stroke:#181818;stroke-width:1;stroke-linejoin:miter;stroke-miterlimit:10;"/><text fill="#000000" font-family="sans-serif" font-size="13" lengthAdjust="spacing" textLength="64.8223" x="93.57" y="149.1069">&#171;inherits&#187;</text></g><!--link guest to UC1--><g class="link" data-entity-1="ent0001" data-entity-2="ent0005" data-link-type="dependency" data-source-line="18" id="lnk11"><path d="M125.84,67.9 C144.86,67.9 158.88,67.9 177.9,67.9" fill="none" id="guest-to-UC1" style="stroke:#181818;stroke-width:1;"/><polygon fill="#181818" points="182.9,67.9,173.9,63.9,177.9,67.9,173.9,71.9,182.9,67.9" style="stroke:#181818;stroke-width:1;stroke-linejoin:miter;stroke-miterlimit:10;"/></g><!--link eng to UC2--><g class="link" data-entity-1="ent0002" data-entity-2="ent0006" data-link-type="dependency" data-source-line="19" id="lnk12"><path d="M152.06,221.19 C167.46,221.19 177.85,221.19 193.25,221.19" fill="none" id="eng-to-UC2" style="stroke:#181818;stroke-width:1;"/><polygon fill="#181818" points="198.25,221.19,189.25,217.19,193.25,221.19,189.25,225.19,198.25,221.19" style="stroke:#181818;stroke-width:1;stroke-linejoin:miter;stroke-miterlimit:10;"/></g><!--link eng to UC3--><g class="link" data-entity-1="ent0002" data-entity-2="ent0007" data-link-type="dependency" data-source-line="20" id="lnk13"><path d="M136.82,259.69 C179.35,287.17 231.2206,320.6861 265.5406,342.8661" fill="none" id="eng-to-UC3" style="stroke:#181818;stroke-width:1;"/><polygon fill="#181818" points="269.74,345.58,264.3523,337.3355,265.5406,342.8661,260.01,344.0544,269.74,345.58" style="stroke:#181818;stroke-width:1;stroke-linejoin:miter;stroke-miterlimit:10;"/></g><!--reverse link UC1 to supa--><g class="link" data-entity-1="ent0005" data-entity-2="ent0003" data-link-type="dependency" data-source-line="22" id="lnk15"><path d="M335.5829,96.3467 C361.6629,117.9167 394.91,148.18 420.79,183.04 C452.63,225.94 478.83,281.51 495.01,320.02" fill="none" id="UC1-backto-supa" style="stroke:#181818;stroke-width:1;"/><polygon fill="#181818" points="331.73,93.16,336.116,101.9783,335.5829,96.3467,341.2146,95.8136,331.73,93.16" style="stroke:#181818;stroke-width:1;stroke-linejoin:miter;stroke-miterlimit:10;"/></g><!--reverse link UC2 to supa--><g class="link" data-entity-1="ent0006" data-entity-2="ent0003" data-link-type="dependency" data-source-line="23" id="lnk17"><path d="M336.2105,246.1628 C367.0705,267.0528 411,296.77 449.81,323.03" fill="none" id="UC2-backto-supa" style="stroke:#181818;stroke-width:1;"/><polygon fill="#181818" points="332.07,243.36,337.2807,251.7176,336.2105,246.1628,341.7652,245.0927,332.07,243.36" style="stroke:#181818;stroke-width:1;stroke-linejoin:miter;stroke-miterlimit:10;"/></g><!--reverse link UC3 to supa--><g class="link" data-entity-1="ent0007" data-entity-2="ent0003" data-link-type="dependency" data-source-line="24" id="lnk19"><path d="M403.09,366.64 C420.41,366.64 432.74,366.64 450.06,366.64" fill="none" id="UC3-backto-supa" style="stroke:#181818;stroke-width:1;"/><polygon fill="#181818" points="398.09,366.64,407.09,370.64,403.09,366.64,407.09,362.64,398.09,366.64" style="stroke:#181818;stroke-width:1;stroke-linejoin:miter;stroke-miterlimit:10;"/></g><?plantuml-src RP1DQuGm48Rl-HM3Xzuyx7eh8fHkwQLBAL9wA3rCupGEwYX9tBBz-E-DMGMH7WBXcMVUPCOrB0DQx610tQ2XqfzR0alQevYMb4BjUml9_KZE9u0Ep7HRy95qZS8QMxWJmq9aeqHY5gKS1tn7Hr2UdQSkbbrWaESpWg9GQdx_4dcmV0eDVgouJ-1R0OoEz1II754cxKRhVXGFL_3IsyQ5Reh9pxUxjNqWnqPWzSqOxMPtltOV1yyTVn6S6E4fVI2qmc9cDLE_IeLqI5zhhYgIjwh_bBI8AU7ympEbuh8W_qcdZS1rc9cb9ilUJJDVggbbK_lOiLEJjWBxBGYPSNbfInzBpmRijo1JVm00?></g></svg>